<?xml version="1.0" encoding="utf-8"?>
<!-- Generator: Adobe Illustrator 16.0.0, SVG Export Plug-In . SVG Version: 6.00 Build 0)  -->
<!DOCTYPE svg PUBLIC "-//W3C//DTD SVG 1.1//EN" "http://www.w3.org/Graphics/SVG/1.1/DTD/svg11.dtd">
<svg version="1.1" id="Layer_1" xmlns="http://www.w3.org/2000/svg" xmlns:xlink="http://www.w3.org/1999/xlink" x="0px" y="0px"
	 width="256px" height="256px" viewBox="0 0 256 256" enable-background="new 0 0 256 256" xml:space="preserve">
<linearGradient id="SVGID_1_" gradientUnits="userSpaceOnUse" x1="307.2207" y1="-9.7261" x2="104.2207" y2="146.2739">
	<stop  offset="0" style="stop-color:#85B9E0"/>
	<stop  offset="1" style="stop-color:#4189C6"/>
</linearGradient>
<rect x="-0.001" y="0" fill="url(#SVGID_1_)" width="256.001" height="256"/>
<path fill="#FFFFFF" d="M196.219,67.13c-2.674-1.104-18.684-4.895-23.678-2.659c-2.826,1.263-10.76,7.783-17.125,13.208
	c-2.383-2.322-6.33-4.475-12.834-5.69c-8.711-1.629-21.806-4.771-41.507,7.091c-20.612,12.408-33.75,21.472-38.241,24.582
	c-0.379,0.259-7.899,5.895-8.551,13.662c1.944-5.581,7.082-9.34,7.384-9.557c4.262-3.037,18.544-10.213,36.807-22.319
	c15.241-10.101,25.446-11.492,33.191-10.783c-12.03,3.11-19.271,11.491-23.517,19.187c-20.471,12.332-33.528,21.34-38.001,24.437
	c-0.378,0.26-7.898,5.896-8.55,13.662c1.942-5.581,7.081-9.34,7.383-9.555c4.204-2.996,18.151-10.02,36.049-21.82
	c-1.109,2.887-1.77,5.303-2.117,6.77c-8.329,0.998-14.793,8.069-14.802,16.668c-0.006,5.769,2.896,10.858,7.318,13.892
	c-2.279,1.542-4.017,2.742-5.17,3.542c-0.379,0.258-7.899,5.893-8.552,13.661c1.945-5.582,7.082-9.34,7.385-9.556
	c1.736-1.235,5.149-3.171,9.804-5.838c1.869,0.72,3.892,1.13,6.015,1.132c4.804,0.004,9.128-2.017,12.196-5.244
	c2.548,4.642,5.236,9.941,8.099,15.034c-8.719,5.621-14.571,9.659-17.273,11.531c-0.379,0.259-7.9,5.894-8.552,13.66
	c1.945-5.581,7.081-9.339,7.384-9.554c2.879-2.053,10.337-6.002,20.498-12.077c2.864,4.799,5.904,9.2,9.16,12.389
	c1.495,1.464,3.241,2.705,5.115,3.772c-4.062,7.806-16.43,19.178-21.518,23.672c0.015,0.062,0.038,0.128,0.053,0.191
	c0,0,19.842-11.365,28.566-20.768c5.835,1.933,11.67,2.672,14.861,2.959c5.638,0.502,5.592-3.589,5.609-5.762
	c0.016-2.062,0.895-6.93-0.923-8.609c0.058-3.451-1.75-6.835-3.405-9.202c-0.683-3.249-1.223-6.851-1.347-10.524l6.604,1.75
	c0.125,0.033,0.248,0.062,0.371,0.091c0.531,2.642,3.192,4.968,6.722,5.586l0.603,0.104c4.307,0.756,8.273-1.316,8.855-4.635
	c0.58-3.314-2.441-6.615-6.751-7.37l-0.601-0.104c-2.988-0.524-5.808,0.312-7.451,1.979c-0.181-0.056-0.363-0.108-0.551-0.157
	l-7.691-2.041c0.033-0.425,0.061-0.851,0.109-1.274c1.541-13.229,7.168-19.912,17.783-31.215c2.104-2.239,3.938-4.322,5.542-6.234
	c0.144-0.068,0.291-0.145,0.438-0.219v0.068c0,0,0.064-0.06,0.16-0.147c3.332-1.706,7.81-4.781,8.181-9.144
	c1.688-1.054,2.964-2.703,3.39-5.254C200.684,74.919,198.897,68.237,196.219,67.13 M143.346,77.582
	c3.135,1.536,4.965,3.451,6.002,5.341c-1.709,1.498-2.783,2.453-2.783,2.453s-0.257,0.15-0.764,0.482
	c-4.762-0.815-10.586-1.426-17.703-0.076C133.536,81.389,139.132,78.936,143.346,77.582 M116.9,112.229
	c-1.249-1.269-2.703-2.33-4.302-3.152c2.335-7.309,5.72-13.018,9.525-17.471c7.729-2.732,13.676-2.78,18.611-2.116
	c-3.431,2.308-7.45,2.041-11.635,6.989C125.312,100.958,120.274,106.821,116.9,112.229 M162.945,171.824
	c-5.219-0.58-17.627-2.799-24.682-9.447c-7.056-6.645-12.448-20.645-17.503-29.73c-0.249-0.447-0.482-0.877-0.71-1.301
	c0.076-0.158,0.156-0.312,0.228-0.473l19.982,5.298c-0.809,8.478-2.206,13.302,1.05,19.199c3.449,6.239,19.807,9.142,19.807,9.142
	c3.211,0.342,5.117,0.432,5.18,1.676C166.359,167.443,167.059,172.279,162.945,171.824 M161.063,158.048
	c-0.737,1.435-1.39,2.655-1.39,2.655c-2.008-0.346-4.219-0.842-6.348-1.568c-0.231-3.24,0.226-7.376,3.275-10.271
	c0,0-6.779,1.691-10.734,5.932c-0.037-0.042-0.084-0.083-0.123-0.125c-4.528-4.958-2.551-6.566-1.658-17.167
	c0.008-0.104,0.027-0.204,0.037-0.308l13.623,3.611c0.152,6.266,1.867,12.291,3.533,16.782
	C161.213,157.747,161.134,157.893,161.063,158.048 M174.675,105.209c-9.649,11.158-15.153,17.818-16.712,30.728
	c-0.004,0.031-0.006,0.064-0.01,0.097l-12.918-3.427c2.436-8.171,8.806-14.796,14.494-23.417c5.338-8.09,9.764-14.607,12.387-18.123
	c2.91,4.166,7.521,7.449,7.521,7.449c-1.42-2.99-0.753-6.606,0.261-9.468c0.395,0.142,0.801,0.285,1.248,0.45
	c1.467,0.542,3.844,1.133,6.403,1.348C184.639,93.842,180.259,98.749,174.675,105.209 M174.615,88.186
	c0.201-0.076,0.418-0.123,0.655-0.145l-0.647,0.205C174.621,88.227,174.619,88.207,174.615,88.186 M174.437,88.307l-0.098,0.03
	c0.034-0.019,0.065-0.049,0.102-0.065C174.439,88.284,174.438,88.294,174.437,88.307 M193.971,82.813
	c-1.365,8.17-13.419,2.136-17.463,0.679c-4.045-1.455-8.934,5.768-10.34,8.069c-1.406,2.306-6.461,7.961-12.684,17.078
	c-5.512,8.082-10.926,14.854-12.619,22.863l-19.305-5.12c0.107-0.766,0.183-1.543,0.184-2.338c0.003-3.547-1.099-6.835-2.972-9.549
	c3.405-5.076,6.891-10.458,10.908-15.033c4.037-4.601,8.185-1.749,11.441-4.134c3.258-2.387,7.767-7.372,7.767-7.372
	s18.954-15.468,23.569-17.431c1.285-0.547,3.164-0.751,5.259-0.742c0.882,2.079,2.401,4.523,3.682,6.184
	c2.296,2.979,6.921,5.149,10.288,2.92c1.153-0.767,2.129-1.916,2.822-3.164C194.679,77.282,194.523,79.506,193.971,82.813"/>
</svg>
